<svg xmlns="http://www.w3.org/2000/svg" xmlns:xlink="http://www.w3.org/1999/xlink" width="1366" zoomAndPan="magnify" viewBox="0 0 1024.5 233.25" height="311" preserveAspectRatio="xMidYMid meet" version="1.2"><defs/><g id="40efba82f7"><g style="fill:#000000;fill-opacity:1;"><g transform="translate(35.420052, 165.966348)"><path style="stroke:none" d="M 46.578125 -34.265625 L 46.578125 -46.578125 L 43.046875 -46.578125 C 42.023438 -46.578125 41.304688 -46.894531 40.890625 -47.53125 C 40.484375 -48.164062 40.28125 -49.085938 40.28125 -50.296875 L 40.28125 -70.921875 C 40.28125 -72.191406 40.484375 -73.144531 40.890625 -73.78125 C 41.304688 -74.414062 42.023438 -74.734375 43.046875 -74.734375 L 74.828125 -74.734375 C 77.367188 -74.734375 78.640625 -73.460938 78.640625 -70.921875 L 78.640625 -33.21875 C 78.640625 -27.425781 77.671875 -22.332031 75.734375 -17.9375 C 73.796875 -13.550781 71.125 -9.863281 67.71875 -6.875 C 64.3125 -3.882812 60.347656 -1.625 55.828125 -0.09375 C 51.316406 1.425781 46.453125 2.1875 41.234375 2.1875 C 36.078125 2.1875 31.160156 1.425781 26.484375 -0.09375 C 21.804688 -1.625 17.65625 -3.867188 14.03125 -6.828125 C 10.40625 -9.785156 7.539062 -13.472656 5.4375 -17.890625 C 3.34375 -22.316406 2.296875 -27.425781 2.296875 -33.21875 L 2.296875 -98.96875 C 2.296875 -104.695312 3.34375 -109.769531 5.4375 -114.1875 C 7.539062 -118.613281 10.40625 -122.304688 14.03125 -125.265625 C 17.65625 -128.222656 21.804688 -130.46875 26.484375 -132 C 31.160156 -133.53125 36.078125 -134.296875 41.234375 -134.296875 C 47.597656 -134.296875 52.957031 -133.398438 57.3125 -131.609375 C 61.675781 -129.828125 65.222656 -127.519531 67.953125 -124.6875 C 70.691406 -121.863281 72.789062 -118.8125 74.25 -115.53125 C 75.71875 -112.257812 76.722656 -109.09375 77.265625 -106.03125 C 77.804688 -102.976562 78.078125 -100.375 78.078125 -98.21875 L 78.078125 -88.28125 C 78.078125 -86.757812 77.851562 -85.644531 77.40625 -84.9375 C 76.957031 -84.238281 76.035156 -83.890625 74.640625 -83.890625 L 49.0625 -83.890625 C 47.851562 -83.890625 47.039062 -84.207031 46.625 -84.84375 C 46.207031 -85.476562 46 -86.4375 46 -87.71875 L 46 -97.25 C 46 -98.59375 45.648438 -99.945312 44.953125 -101.3125 C 44.253906 -102.675781 42.921875 -103.359375 40.953125 -103.359375 C 39.359375 -103.359375 38.242188 -102.816406 37.609375 -101.734375 C 36.972656 -100.660156 36.65625 -99.328125 36.65625 -97.734375 L 36.65625 -35.03125 C 36.65625 -33.050781 37.035156 -31.519531 37.796875 -30.4375 C 38.554688 -29.363281 39.703125 -28.828125 41.234375 -28.828125 C 42.890625 -28.828125 44.191406 -29.347656 45.140625 -30.390625 C 46.097656 -31.441406 46.578125 -32.734375 46.578125 -34.265625 Z M 46.578125 -34.265625 "/></g></g><g style="fill:#000000;fill-opacity:1;"><g transform="translate(139.725351, 165.966348)"><path style="stroke:none" d="M 37.984375 -30.921875 L 71.484375 -30.921875 C 73.460938 -30.921875 74.453125 -29.679688 74.453125 -27.203125 L 74.453125 -3.71875 C 74.453125 -1.238281 73.460938 0 71.484375 0 L 7.25 0 C 4.832031 0 3.625 -1.300781 3.625 -3.90625 L 3.625 -128.1875 C 3.625 -130.851562 4.832031 -132.1875 7.25 -132.1875 L 70.71875 -132.1875 C 72.5625 -132.1875 73.484375 -130.851562 73.484375 -128.1875 L 73.484375 -104.984375 C 73.484375 -102.378906 72.5625 -101.078125 70.71875 -101.078125 L 37.984375 -101.078125 L 37.984375 -81.609375 L 63.65625 -81.609375 C 64.675781 -81.609375 65.488281 -81.289062 66.09375 -80.65625 C 66.695312 -80.019531 67 -79.03125 67 -77.6875 L 67 -54.5 C 67 -51.957031 65.882812 -50.6875 63.65625 -50.6875 L 37.984375 -50.6875 Z M 37.984375 -30.921875 "/></g></g><g style="fill:#000000;fill-opacity:1;"><g transform="translate(238.590432, 165.966348)"><path style="stroke:none" d="M 77.875 0 L 50.203125 0 C 49.242188 0 48.445312 -0.410156 47.8125 -1.234375 C 47.175781 -2.066406 46.859375 -2.992188 46.859375 -4.015625 L 46.859375 -96.96875 C 46.859375 -98.5625 46.554688 -100.023438 45.953125 -101.359375 C 45.347656 -102.691406 44.125 -103.359375 42.28125 -103.359375 C 40.4375 -103.359375 39.195312 -102.691406 38.5625 -101.359375 C 37.925781 -100.023438 37.609375 -98.5625 37.609375 -96.96875 L 37.609375 -4.015625 C 37.609375 -2.929688 37.414062 -1.988281 37.03125 -1.1875 C 36.644531 -0.394531 35.816406 0 34.546875 0 L 5.828125 0 C 5.117188 0 4.507812 -0.410156 4 -1.234375 C 3.5 -2.066406 3.25 -2.992188 3.25 -4.015625 L 3.25 -98.96875 C 3.25 -103.875 4.296875 -108.472656 6.390625 -112.765625 C 8.492188 -117.054688 11.359375 -120.820312 14.984375 -124.0625 C 18.609375 -127.3125 22.757812 -129.84375 27.4375 -131.65625 C 32.113281 -133.476562 37.03125 -134.390625 42.1875 -134.390625 C 47.34375 -134.390625 52.273438 -133.476562 56.984375 -131.65625 C 61.691406 -129.84375 65.859375 -127.3125 69.484375 -124.0625 C 73.109375 -120.820312 75.96875 -117.054688 78.0625 -112.765625 C 80.164062 -108.472656 81.21875 -103.875 81.21875 -98.96875 L 81.21875 -4.015625 C 81.21875 -2.992188 80.929688 -2.066406 80.359375 -1.234375 C 79.785156 -0.410156 78.957031 0 77.875 0 Z M 77.875 0 "/></g></g><g style="fill:#000000;fill-opacity:1;"><g transform="translate(346.904307, 165.966348)"><path style="stroke:none" d="M 68.90625 -101.078125 L 52.875 -101.078125 L 52.875 -3.71875 C 52.875 -1.238281 51.890625 0 49.921875 0 L 21.46875 0 C 19.5 0 18.515625 -1.238281 18.515625 -3.71875 L 18.515625 -101.078125 L 2.390625 -101.078125 C 0.410156 -101.078125 -0.578125 -102.378906 -0.578125 -104.984375 L -0.578125 -128.1875 C -0.578125 -130.851562 0.410156 -132.1875 2.390625 -132.1875 L 68.90625 -132.1875 C 70.945312 -132.1875 71.96875 -130.851562 71.96875 -128.1875 L 71.96875 -104.984375 C 71.96875 -102.378906 70.945312 -101.078125 68.90625 -101.078125 Z M 68.90625 -101.078125 "/></g></g><g style="fill:#000000;fill-opacity:1;"><g transform="translate(442.047139, 165.966348)"><path style="stroke:none" d="M 68.140625 0 L 7.25 0 C 4.832031 0 3.625 -1.300781 3.625 -3.90625 L 3.625 -128.1875 C 3.625 -130.851562 4.832031 -132.1875 7.25 -132.1875 L 34.453125 -132.1875 C 36.804688 -132.1875 37.984375 -130.851562 37.984375 -128.1875 L 37.984375 -30.921875 L 68.140625 -30.921875 C 69.222656 -30.921875 69.957031 -30.617188 70.34375 -30.015625 C 70.726562 -29.410156 70.921875 -28.472656 70.921875 -27.203125 L 70.921875 -3.90625 C 70.921875 -2.632812 70.726562 -1.664062 70.34375 -1 C 69.957031 -0.332031 69.222656 0 68.140625 0 Z M 68.140625 0 "/></g></g><g style="fill:#000000;fill-opacity:1;"><g transform="translate(537.953491, 165.966348)"><path style="stroke:none" d="M 37.984375 -30.921875 L 71.484375 -30.921875 C 73.460938 -30.921875 74.453125 -29.679688 74.453125 -27.203125 L 74.453125 -3.71875 C 74.453125 -1.238281 73.460938 0 71.484375 0 L 7.25 0 C 4.832031 0 3.625 -1.300781 3.625 -3.90625 L 3.625 -128.1875 C 3.625 -130.851562 4.832031 -132.1875 7.25 -132.1875 L 70.71875 -132.1875 C 72.5625 -132.1875 73.484375 -130.851562 73.484375 -128.1875 L 73.484375 -104.984375 C 73.484375 -102.378906 72.5625 -101.078125 70.71875 -101.078125 L 37.984375 -101.078125 L 37.984375 -81.609375 L 63.65625 -81.609375 C 64.675781 -81.609375 65.488281 -81.289062 66.09375 -80.65625 C 66.695312 -80.019531 67 -79.03125 67 -77.6875 L 67 -54.5 C 67 -51.957031 65.882812 -50.6875 63.65625 -50.6875 L 37.984375 -50.6875 Z M 37.984375 -30.921875 "/></g></g><g style="fill:#000000;fill-opacity:1;"><g transform="translate(636.818562, 165.966348)"><path style="stroke:none" d="M 90.578125 -4.015625 L 90.578125 -96.96875 C 90.578125 -98.5625 90.273438 -100.023438 89.671875 -101.359375 C 89.066406 -102.691406 87.84375 -103.359375 86 -103.359375 C 84.15625 -103.359375 82.894531 -102.691406 82.21875 -101.359375 C 81.550781 -100.023438 81.21875 -98.5625 81.21875 -96.96875 L 81.21875 -4.015625 C 81.21875 -2.929688 81.039062 -1.988281 80.6875 -1.1875 C 80.34375 -0.394531 79.535156 0 78.265625 0 L 49.53125 0 C 48.832031 0 48.210938 -0.410156 47.671875 -1.234375 C 47.128906 -2.066406 46.859375 -2.992188 46.859375 -4.015625 L 46.859375 -97.640625 C 46.796875 -99.097656 46.445312 -100.414062 45.8125 -101.59375 C 45.175781 -102.769531 44 -103.359375 42.28125 -103.359375 C 40.4375 -103.359375 39.195312 -102.691406 38.5625 -101.359375 C 37.925781 -100.023438 37.609375 -98.5625 37.609375 -96.96875 L 37.609375 -4.015625 C 37.609375 -2.929688 37.414062 -1.988281 37.03125 -1.1875 C 36.644531 -0.394531 35.816406 0 34.546875 0 L 5.828125 0 C 5.117188 0 4.507812 -0.410156 4 -1.234375 C 3.5 -2.066406 3.25 -2.992188 3.25 -4.015625 L 3.25 -98.96875 C 3.25 -103.875 4.296875 -108.472656 6.390625 -112.765625 C 8.492188 -117.054688 11.359375 -120.820312 14.984375 -124.0625 C 18.609375 -127.3125 22.757812 -129.84375 27.4375 -131.65625 C 32.113281 -133.476562 37.03125 -134.390625 42.1875 -134.390625 C 46.132812 -134.390625 49.96875 -133.847656 53.6875 -132.765625 C 57.40625 -131.679688 60.859375 -130.117188 64.046875 -128.078125 C 67.222656 -130.117188 70.671875 -131.679688 74.390625 -132.765625 C 78.117188 -133.847656 81.957031 -134.390625 85.90625 -134.390625 C 91.050781 -134.390625 95.976562 -133.476562 100.6875 -131.65625 C 105.394531 -129.84375 109.5625 -127.3125 113.1875 -124.0625 C 116.820312 -120.820312 119.6875 -117.054688 121.78125 -112.765625 C 123.882812 -108.472656 124.9375 -103.875 124.9375 -98.96875 L 124.9375 -4.015625 C 124.9375 -2.992188 124.648438 -2.066406 124.078125 -1.234375 C 123.503906 -0.410156 122.675781 0 121.59375 0 L 93.921875 0 C 92.960938 0 92.164062 -0.410156 91.53125 -1.234375 C 90.894531 -2.066406 90.578125 -2.992188 90.578125 -4.015625 Z M 90.578125 -4.015625 "/></g></g><g style="fill:#000000;fill-opacity:1;"><g transform="translate(788.749726, 165.966348)"><path style="stroke:none" d="M 37.609375 -96.96875 L 37.609375 -55.171875 L 46.859375 -55.171875 L 46.859375 -96.96875 C 46.859375 -98.5625 46.554688 -100.023438 45.953125 -101.359375 C 45.347656 -102.691406 44.125 -103.359375 42.28125 -103.359375 C 40.4375 -103.359375 39.195312 -102.691406 38.5625 -101.359375 C 37.925781 -100.023438 37.609375 -98.5625 37.609375 -96.96875 Z M 81.21875 -98.96875 L 81.21875 -4.015625 C 81.21875 -2.992188 80.929688 -2.066406 80.359375 -1.234375 C 79.785156 -0.410156 78.957031 0 77.875 0 L 50.203125 0 C 49.242188 0 48.445312 -0.410156 47.8125 -1.234375 C 47.175781 -2.066406 46.859375 -2.992188 46.859375 -4.015625 L 46.859375 -25.296875 L 37.609375 -25.296875 L 37.609375 -4.015625 C 37.609375 -2.929688 37.414062 -1.988281 37.03125 -1.1875 C 36.644531 -0.394531 35.816406 0 34.546875 0 L 5.828125 0 C 5.117188 0 4.507812 -0.410156 4 -1.234375 C 3.5 -2.066406 3.25 -2.992188 3.25 -4.015625 L 3.25 -98.96875 C 3.25 -103.875 4.296875 -108.472656 6.390625 -112.765625 C 8.492188 -117.054688 11.359375 -120.820312 14.984375 -124.0625 C 18.609375 -127.3125 22.757812 -129.84375 27.4375 -131.65625 C 32.113281 -133.476562 37.03125 -134.390625 42.1875 -134.390625 C 47.34375 -134.390625 52.273438 -133.476562 56.984375 -131.65625 C 61.691406 -129.84375 65.859375 -127.3125 69.484375 -124.0625 C 73.109375 -120.820312 75.96875 -117.054688 78.0625 -112.765625 C 80.164062 -108.472656 81.21875 -103.875 81.21875 -98.96875 Z M 81.21875 -98.96875 "/></g></g><g style="fill:#000000;fill-opacity:1;"><g transform="translate(897.063646, 165.966348)"><path style="stroke:none" d="M 77.875 0 L 50.203125 0 C 49.242188 0 48.445312 -0.410156 47.8125 -1.234375 C 47.175781 -2.066406 46.859375 -2.992188 46.859375 -4.015625 L 46.859375 -96.96875 C 46.859375 -98.5625 46.554688 -100.023438 45.953125 -101.359375 C 45.347656 -102.691406 44.125 -103.359375 42.28125 -103.359375 C 40.4375 -103.359375 39.195312 -102.691406 38.5625 -101.359375 C 37.925781 -100.023438 37.609375 -98.5625 37.609375 -96.96875 L 37.609375 -4.015625 C 37.609375 -2.929688 37.414062 -1.988281 37.03125 -1.1875 C 36.644531 -0.394531 35.816406 0 34.546875 0 L 5.828125 0 C 5.117188 0 4.507812 -0.410156 4 -1.234375 C 3.5 -2.066406 3.25 -2.992188 3.25 -4.015625 L 3.25 -98.96875 C 3.25 -103.875 4.296875 -108.472656 6.390625 -112.765625 C 8.492188 -117.054688 11.359375 -120.820312 14.984375 -124.0625 C 18.609375 -127.3125 22.757812 -129.84375 27.4375 -131.65625 C 32.113281 -133.476562 37.03125 -134.390625 42.1875 -134.390625 C 47.34375 -134.390625 52.273438 -133.476562 56.984375 -131.65625 C 61.691406 -129.84375 65.859375 -127.3125 69.484375 -124.0625 C 73.109375 -120.820312 75.96875 -117.054688 78.0625 -112.765625 C 80.164062 -108.472656 81.21875 -103.875 81.21875 -98.96875 L 81.21875 -4.015625 C 81.21875 -2.992188 80.929688 -2.066406 80.359375 -1.234375 C 79.785156 -0.410156 78.957031 0 77.875 0 Z M 77.875 0 "/></g></g><g style="fill:#ff3131;fill-opacity:1;"><g transform="translate(697.626915, 230.184855)"><path style="stroke:none" d="M 22.359375 -32.796875 L 17.15625 -32.796875 L 17.15625 -1.203125 C 17.15625 -0.398438 16.835938 0 16.203125 0 L 6.96875 0 C 6.332031 0 6.015625 -0.398438 6.015625 -1.203125 L 6.015625 -32.796875 L 0.78125 -32.796875 C 0.132812 -32.796875 -0.1875 -33.222656 -0.1875 -34.078125 L -0.1875 -41.59375 C -0.1875 -42.46875 0.132812 -42.90625 0.78125 -42.90625 L 22.359375 -42.90625 C 23.023438 -42.90625 23.359375 -42.46875 23.359375 -41.59375 L 23.359375 -34.078125 C 23.359375 -33.222656 23.023438 -32.796875 22.359375 -32.796875 Z M 22.359375 -32.796875 "/></g></g><g style="fill:#ff3131;fill-opacity:1;"><g transform="translate(730.087206, 230.184855)"><path style="stroke:none" d="M 26.078125 -32.125 L 26.078125 -10.78125 C 26.078125 -8.894531 25.734375 -7.238281 25.046875 -5.8125 C 24.367188 -4.394531 23.4375 -3.203125 22.25 -2.234375 C 21.0625 -1.265625 19.707031 -0.53125 18.1875 -0.03125 C 16.675781 0.46875 15.070312 0.71875 13.375 0.71875 C 11.707031 0.71875 10.113281 0.457031 8.59375 -0.0625 C 7.070312 -0.582031 5.722656 -1.335938 4.546875 -2.328125 C 3.367188 -3.316406 2.441406 -4.515625 1.765625 -5.921875 C 1.085938 -7.335938 0.75 -8.957031 0.75 -10.78125 L 0.75 -32.125 C 0.75 -33.976562 1.085938 -35.617188 1.765625 -37.046875 C 2.441406 -38.472656 3.363281 -39.671875 4.53125 -40.640625 C 5.695312 -41.609375 7.039062 -42.335938 8.5625 -42.828125 C 10.082031 -43.328125 11.675781 -43.578125 13.34375 -43.578125 C 15.039062 -43.578125 16.648438 -43.332031 18.171875 -42.84375 C 19.703125 -42.363281 21.0625 -41.640625 22.25 -40.671875 C 23.4375 -39.703125 24.367188 -38.503906 25.046875 -37.078125 C 25.734375 -35.648438 26.078125 -34 26.078125 -32.125 Z M 13.4375 -33.546875 C 12.84375 -33.546875 12.4375 -33.316406 12.21875 -32.859375 C 12 -32.410156 11.890625 -31.9375 11.890625 -31.4375 L 11.890625 -11.4375 C 11.890625 -10.914062 11.984375 -10.4375 12.171875 -10 C 12.359375 -9.570312 12.757812 -9.359375 13.375 -9.359375 C 14.019531 -9.359375 14.441406 -9.53125 14.640625 -9.875 C 14.835938 -10.226562 14.9375 -10.664062 14.9375 -11.1875 L 14.9375 -31.4375 C 14.9375 -31.9375 14.835938 -32.410156 14.640625 -32.859375 C 14.441406 -33.316406 14.039062 -33.546875 13.4375 -33.546875 Z M 13.4375 -33.546875 "/></g></g><g style="fill:#ff3131;fill-opacity:1;"><g transform="translate(766.233062, 230.184855)"><path style="stroke:none" d="M 15.203125 -11.4375 L 15.203125 -41.59375 C 15.203125 -41.945312 15.304688 -42.253906 15.515625 -42.515625 C 15.722656 -42.773438 15.984375 -42.90625 16.296875 -42.90625 L 25.28125 -42.90625 C 25.625 -42.90625 25.890625 -42.769531 26.078125 -42.5 C 26.265625 -42.226562 26.359375 -41.925781 26.359375 -41.59375 L 26.359375 -10.78125 C 26.359375 -9.1875 26.015625 -7.691406 25.328125 -6.296875 C 24.648438 -4.910156 23.722656 -3.6875 22.546875 -2.625 C 21.367188 -1.570312 20.015625 -0.75 18.484375 -0.15625 C 16.960938 0.425781 15.363281 0.71875 13.6875 0.71875 C 12.019531 0.71875 10.425781 0.425781 8.90625 -0.15625 C 7.382812 -0.75 6.035156 -1.570312 4.859375 -2.625 C 3.679688 -3.6875 2.75 -4.910156 2.0625 -6.296875 C 1.382812 -7.691406 1.046875 -9.1875 1.046875 -10.78125 L 1.046875 -41.59375 C 1.046875 -41.925781 1.128906 -42.226562 1.296875 -42.5 C 1.460938 -42.769531 1.660156 -42.90625 1.890625 -42.90625 L 11.21875 -42.90625 C 11.625 -42.90625 11.890625 -42.773438 12.015625 -42.515625 C 12.140625 -42.253906 12.203125 -41.945312 12.203125 -41.59375 L 12.203125 -11.4375 C 12.203125 -10.914062 12.304688 -10.4375 12.515625 -10 C 12.722656 -9.570312 13.125 -9.359375 13.71875 -9.359375 C 14.320312 -9.359375 14.71875 -9.570312 14.90625 -10 C 15.101562 -10.4375 15.203125 -10.914062 15.203125 -11.4375 Z M 15.203125 -11.4375 "/></g></g><g style="fill:#ff3131;fill-opacity:1;"><g transform="translate(802.967368, 230.184855)"><path style="stroke:none" d="M 25.34375 -31.875 L 25.34375 -28.375 C 25.34375 -27.851562 25.269531 -27.476562 25.125 -27.25 C 24.976562 -27.03125 24.675781 -26.921875 24.21875 -26.921875 L 15.984375 -26.921875 C 15.585938 -26.921875 15.316406 -27.019531 15.171875 -27.21875 C 15.035156 -27.425781 14.96875 -27.75 14.96875 -28.1875 L 14.96875 -31.53125 C 14.96875 -31.800781 14.925781 -32.085938 14.84375 -32.390625 C 14.757812 -32.703125 14.609375 -32.972656 14.390625 -33.203125 C 14.171875 -33.429688 13.863281 -33.546875 13.46875 -33.546875 C 12.9375 -33.546875 12.539062 -33.347656 12.28125 -32.953125 C 12.019531 -32.566406 11.890625 -32.125 11.890625 -31.625 L 11.890625 -11.4375 C 11.890625 -10.914062 11.992188 -10.4375 12.203125 -10 C 12.410156 -9.570312 12.832031 -9.359375 13.46875 -9.359375 C 14.195312 -9.359375 14.648438 -9.570312 14.828125 -10 C 15.015625 -10.4375 15.109375 -10.914062 15.109375 -11.4375 L 15.109375 -15.828125 C 15.109375 -16.304688 15.175781 -16.628906 15.3125 -16.796875 C 15.445312 -16.972656 15.710938 -17.0625 16.109375 -17.0625 L 24.375 -17.0625 C 24.8125 -17.0625 25.113281 -16.988281 25.28125 -16.84375 C 25.445312 -16.707031 25.53125 -16.398438 25.53125 -15.921875 L 25.53125 -10.78125 C 25.53125 -8.914062 25.210938 -7.265625 24.578125 -5.828125 C 23.953125 -4.398438 23.082031 -3.203125 21.96875 -2.234375 C 20.863281 -1.265625 19.578125 -0.53125 18.109375 -0.03125 C 16.648438 0.46875 15.070312 0.71875 13.375 0.71875 C 11.707031 0.71875 10.113281 0.46875 8.59375 -0.03125 C 7.070312 -0.53125 5.722656 -1.265625 4.546875 -2.234375 C 3.367188 -3.203125 2.441406 -4.398438 1.765625 -5.828125 C 1.085938 -7.265625 0.75 -8.914062 0.75 -10.78125 L 0.75 -32.125 C 0.75 -33.769531 1.050781 -35.289062 1.65625 -36.6875 C 2.269531 -38.082031 3.140625 -39.296875 4.265625 -40.328125 C 5.390625 -41.359375 6.722656 -42.15625 8.265625 -42.71875 C 9.816406 -43.289062 11.519531 -43.578125 13.375 -43.578125 C 15.550781 -43.578125 17.394531 -43.234375 18.90625 -42.546875 C 20.425781 -41.867188 21.660156 -40.96875 22.609375 -39.84375 C 23.554688 -38.71875 24.25 -37.460938 24.6875 -36.078125 C 25.125 -34.703125 25.34375 -33.300781 25.34375 -31.875 Z M 25.34375 -31.875 "/></g></g><g style="fill:#ff3131;fill-opacity:1;"><g transform="translate(838.400887, 230.184855)"><path style="stroke:none" d="M 16.546875 -42.90625 L 25.375 -42.90625 C 25.613281 -42.90625 25.863281 -42.828125 26.125 -42.671875 C 26.382812 -42.515625 26.515625 -42.175781 26.515625 -41.65625 L 26.515625 -1.265625 C 26.515625 -0.421875 26.082031 0 25.21875 0 L 16.546875 0 C 15.753906 0 15.359375 -0.421875 15.359375 -1.265625 L 15.359375 -17.0625 L 12.328125 -17.0625 L 12.328125 -1.265625 C 12.328125 -0.421875 11.945312 0 11.1875 0 L 2.359375 0 C 1.566406 0 1.171875 -0.421875 1.171875 -1.265625 L 1.171875 -41.59375 C 1.171875 -42.46875 1.566406 -42.90625 2.359375 -42.90625 L 11.1875 -42.90625 C 11.945312 -42.90625 12.328125 -42.46875 12.328125 -41.59375 L 12.328125 -27.140625 L 15.359375 -27.140625 L 15.359375 -41.59375 C 15.359375 -41.945312 15.457031 -42.253906 15.65625 -42.515625 C 15.851562 -42.773438 16.148438 -42.90625 16.546875 -42.90625 Z M 16.546875 -42.90625 "/></g></g></g></svg>